.
..............................Site Info...........................

 -   http://www.scenetime.com  *_*   

SceneTime is going to Close sign up on march/1, hurry up! get in before the doors are closed.

     We care to share . Join us on  http://www.scenetime.com 

    Be the first to get new release at  http://www.scenetime.com

        Seed back for speed


...................................NFO:.................................................








































          
          
              
              
                    
                    
                    
                    

Antfarm.Dickhole.2011.DVDRiP.AC3-2.0.XviD-SiC

Poster:
[img]http://img36.imageshack.us/img36/258/mvd5268d.jpg[/img]

IMDB Link:
http://www.imdb.com/title/tt2028457/

Description:
Hailed as having "the most WTF moments in movie history" Antfarm Dickhole is the story of rampaging army ants that have nested inside a living human body. The unwilling host discovers that when bullies attack him, the ants defend their nest. Thus begins a tragic tale of what happens when the powerless become powerful.


General
Complete name                    : Antfarm.Dickhole.2011.DVDRiP.AC3-2.0.XviD-SiC.avi
Format                           : AVI
Format/Info                      : Audio Video Interleave
File size                        : 1.26 GiB
Duration                         : 1h 25mn
Overall bit rate                 : 2 116 Kbps
Writing library                  : VirtualDub build 32839/release

Video
ID                               : 0
Format                           : MPEG-4 Visual
Format profile                   : Simple@L3
Format settings, BVOP            : 2
Format settings, QPel            : No
Format settings, GMC             : No warppoints
Format settings, Matrix          : Default (H.263)
Muxing mode                      : Packed bitstream
Codec ID                         : XVID
Codec ID/Hint                    : XviD
Duration                         : 1h 25mn
Bit rate                         : 1 849 Kbps
Width                            : 720 pixels
Height                           : 400 pixels
Display aspect ratio             : 16:9
Frame rate                       : 29.970 fps
Color space                      : YUV
Chroma subsampling               : 4:2:0
Bit depth                        : 8 bits
Scan type                        : Progressive
Compression mode                 : Lossy
Bits/(Pixel*Frame)               : 0.214
Stream size                      : 1.10 GiB (87%)
Writing library                  : XviD 1.0.3 (UTC 2004-12-20)

Audio
ID                               : 1
Format                           : AC-3
Format/Info                      : Audio Coding 3
Mode extension                   : CM (complete main)
Codec ID                         : 2000
Duration                         : 1h 25mn
Bit rate mode                    : Constant
Bit rate                         : 256 Kbps
Channel(s)                       : 2 channels
Channel positions                : Front: L R
Sampling rate                    : 48.0 KHz
Bit depth                        : 16 bits
Compression mode                 : Lossy
Stream size                      : 156 MiB (12%)
Alignment                        : Split accross interleaves
Interleave, duration             : 33 ms (1.00 video frame)
Interleave, preload duration     : 500 ms








Screenshots:
[img]http://img210.imageshack.us/img210/2500/vlcsnap2012021301h48m26.png[/img]
[img]http://img195.imageshack.us/img195/9748/vlcsnap2012021301h48m30.png[/img]
[img]http://img546.imageshack.us/img546/1853/vlcsnap2012021301h48m37.png[/img]
[img]http://img46.imageshack.us/img46/4921/vlcsnap2012021301h48m54.png[/img]

Note: 

Source: 

Enjoy!

Respects to T00NG0D, ELEKTRI4KA, PA, YeFsTe, MrRep and everyone in the struggle...RiP MU & BTJ